# xmcd
#
# Track frame offsets: 
#        150
#        23781
#        40193
#        57044
#        76130
#        95784
#        109751
#        135112
#        152333
#        174354
#        194570
#        217717
#        231952
#        248385
#        257373
#        287495
#        305394
#
# Disc length: 4200 seconds
#
# Revision: 0
# Processed by: cddbd v1.5.2PL0 Copyright (c) Steve Scherf et al.
# Submitted via: ExactAudioCopyFreeDBPlugin 1.0
#
DISCID=c7106611
DTITLE=Chapman, Michael - Rainmaker 
DYEAR=1900
DGENRE=
TTITLE0=It Didn't Work Out
TTITLE1=Rainmaker
TTITLE2=You Say
TTITLE3=Thank You P.K. 1944
TTITLE4=No-One Left To Care
TTITLE5=Small Stones
TTITLE6=Not So Much A Garden - More Lika A Maze
TTITLE7=No Song To Sing
TTITLE8=One Time Thing
TTITLE9=Sunday Morning
TTITLE10=Goodbye To Monday Night
TTITLE11=If I Bring You Roses
TTITLE12=Among The Trees
TTITLE13=Sleepy
TTITLE14=On My Way Again
TTITLE15=Mozart Lives Upstairs
TTITLE16=Bert Jansch Meets Frankenstein
EXTD=
EXTT0=
EXTT1=
EXTT2=
EXTT3=
EXTT4=
EXTT5=
EXTT6=
EXTT7=
EXTT8=
EXTT9=
EXTT10=
EXTT11=
EXTT12=
EXTT13=
EXTT14=
EXTT15=
EXTT16=
PLAYORDER=
